<svg id="icn_children" xmlns="http://www.w3.org/2000/svg" xmlns:xlink="http://www.w3.org/1999/xlink" width="28" height="28" viewBox="0 0 28 28">
<defs>
    <style>
      .cls-1, .cls-2 {
        fill-rule: evenodd;
      }

      .cls-1 {
        fill: #fff;
      }

      .cls-2 {
        fill: #fff;
      }
    </style>
  </defs>
  <path class="cls-1" d="M800.234,1630.85a2.114,2.114,0,0,0-1.483-1.59,16.673,16.673,0,0,1-4.53-2.12c0.236-.26.459-0.53,0.678-0.78,1.291-1.52,2.224-2.61,4.515-3.18a5.372,5.372,0,0,0,2.86-1.63,5.287,5.287,0,0,0,.123-7.12,5,5,0,0,0-3.7-1.62,5.356,5.356,0,0,0-3.808,1.6,5.456,5.456,0,0,0-1.478,2.74c-0.56,2.3-1.648,3.24-3.154,4.54-0.255.22-.514,0.45-0.78,0.68a16.83,16.83,0,0,1-2.1-4.56,2.141,2.141,0,0,0-.537-0.91,2.241,2.241,0,0,0-3.176.05,2.329,2.329,0,0,0-.648,2.07,18.353,18.353,0,0,0,2.451,6.32,4.35,4.35,0,0,0-.619,1.15,6.563,6.563,0,0,0-5.5,1.91,6.464,6.464,0,0,0-.156,9.09,6.368,6.368,0,0,0,9.038-.15,6.668,6.668,0,0,0,1.895-5.53,4.276,4.276,0,0,0,1.143-.63,18.057,18.057,0,0,0,6.283,2.47,2.287,2.287,0,0,0,2.049-.65A2.31,2.31,0,0,0,800.234,1630.85Zm-4.3-15.39a3.771,3.771,0,0,1,2.709-1.13,3.533,3.533,0,0,1,2.629,1.15,3.756,3.756,0,0,1-.088,5.06,3.814,3.814,0,0,1-2.044,1.16,0.029,0.029,0,0,1-.026.01,9.29,9.29,0,0,0-5.347,3.69c-0.242.28-.491,0.57-0.754,0.86a16.968,16.968,0,0,1-2.661-2.67c0.291-.27.579-0.52,0.861-0.76a9.425,9.425,0,0,0,3.662-5.38l0.006-.03A3.885,3.885,0,0,1,795.939,1615.46Zm-8.747,20.82a4.86,4.86,0,0,1-6.912.12,4.942,4.942,0,0,1,.119-6.95,5,5,0,0,1,4.2-1.46,4.056,4.056,0,0,0,4.048,4.07A5.078,5.078,0,0,1,787.192,1636.28Zm-0.809-9.6a17.613,17.613,0,0,0,1.657,1.91,18.4,18.4,0,0,0,1.906,1.67,2.674,2.674,0,0,1-.783.25,2.6,2.6,0,0,1-2.3-.73,2.642,2.642,0,0,1-.729-2.31A2.791,2.791,0,0,1,786.383,1626.68Zm11.5,5.48a16.784,16.784,0,0,1-6.225-2.55,17.2,17.2,0,0,1-4.627-4.66,16.861,16.861,0,0,1-2.538-6.27,0.747,0.747,0,0,1,.214-0.67,0.733,0.733,0,0,1,1.05-.02,0.681,0.681,0,0,1,.174.3,18.3,18.3,0,0,0,2.8,5.69,0.109,0.109,0,0,0,.011.01h0a18.418,18.418,0,0,0,3.87,3.9h0s0.01,0.01.015,0.01a18.065,18.065,0,0,0,5.655,2.81,0.7,0.7,0,0,1,.487.52,0.771,0.771,0,0,1-.208.72A0.742,0.742,0,0,1,797.887,1632.16Z" transform="translate(-776.406 -1611.81)"/>
  <path id="Rectangle_676_copy_23" data-name="Rectangle 676 copy 23" class="cls-2" d="M784,1618.06h2v2h-2v-2Zm1,2h2v2h-2v-2Zm1,2h2v2h-2v-2Zm1,2h2v2h-2v-2Zm9,6h2v2h-2v-2Zm1,0h2v2h-2v-2Zm-3,0h2v2h-2v-2Zm0-1h2v2h-2v-2Zm-1,0h2v2h-2v-2Zm0-1h2v2h-2v-2Zm-1,0h2v2h-2v-2Zm-1,0h2v2h-2v-2Zm0-1h2v2h-2v-2Zm-1,0h2v2h-2v-2Zm0-1h2v2h-2v-2Zm-1,0h2v2h-2v-2Zm0-1h2v2h-2v-2Zm-1,0h2v2h-2v-2Zm0-1h2v2h-2v-2Zm-1-1h2v2h-2v-2Zm-1,0h2v2h-2v-2Zm0-2h2v2h-2v-2Zm-1,0h2v2h-2v-2Zm0-2h2v2h-2v-2Z" transform="translate(-776.406 -1611.81)"/>
</svg>
