<svg xmlns="http://www.w3.org/2000/svg" width="352.25" height="424.719" viewBox="0 0 352.25 424.719">
  <metadata><?xpacket begin="﻿" id="W5M0MpCehiHzreSzNTczkc9d"?>
<x:xmpmeta xmlns:x="adobe:ns:meta/" x:xmptk="Adobe XMP Core 5.6-c142 79.160924, 2017/07/13-01:06:39        ">
   <rdf:RDF xmlns:rdf="http://www.w3.org/1999/02/22-rdf-syntax-ns#">
      <rdf:Description rdf:about=""/>
   </rdf:RDF>
</x:xmpmeta>
                                                                                                    
                                                                                                    
                                                                                                    
                                                                                                    
                                                                                                    
                                                                                                    
                                                                                                    
                                                                                                    
                                                                                                    
                                                                                                    
                                                                                                    
                                                                                                    
                                                                                                    
                                                                                                    
                                                                                                    
                                                                                                    
                                                                                                    
                                                                                                    
                                                                                                    
                                                                                                    
                           
<?xpacket end="w"?></metadata>
<defs>
    <style>
      .cls-1 {
        fill-rule: evenodd;
      }
    </style>
  </defs>
  <path id="Forma_1" data-name="Forma 1" class="cls-1" d="M204.942,282.8a20.181,20.181,0,0,0-5.667-4.124,68.249,68.249,0,0,0-14.359-5.08v38.045c7.96-.9,17.1-3.793,21.277-11.232h0a17.4,17.4,0,0,0,1.579-11.876A11.936,11.936,0,0,0,204.942,282.8Zm1.21,17.683,0.042-.074h0C206.179,300.436,206.166,300.46,206.152,300.485Zm-58.569-78.5a14.278,14.278,0,0,0-2.464,6.69,16.05,16.05,0,0,0,.815,7.392,11.842,11.842,0,0,0,4.6,5.065,35.939,35.939,0,0,0,6.832,3.531c2,0.8,4.238,1.573,6.656,2.315V212.551C157.911,213.856,151.237,216.642,147.583,221.984Zm58.768,78.146c-0.05.089-.1,0.183-0.157,0.281h0C206.257,300.3,206.305,300.212,206.351,300.13Zm0.2-.356c0.013-.024.015-0.026,0,0h0ZM198.3,92.824C230.619,65.646,252.21,4.416,238.922,1.738c-17.656-3.56-56,12.049-74.529,14.8C138.109,19.715,109.482-12,93.413,5.678c-13.065,14.373,9.367,66.642,44.462,89.413C33.171,146.615-114,405.264,142.747,424.031,498,450,320.112,143.032,198.3,92.824Zm30.511,203.983A37.406,37.406,0,0,1,214.405,322.2c-8.424,6.537-18.99,9.577-29.489,10.429V343.77a10.448,10.448,0,1,1-20.9,0V331.593c-1.8-.342-3.588-0.749-5.354-1.236A51.284,51.284,0,0,1,133.1,314.613a46.147,46.147,0,0,1-7.878-13.036q-0.732-1.861-1.3-3.785a19.432,19.432,0,0,1-.823-3.542,10.447,10.447,0,0,1,20.313-4.342c0.4,1.206.667,2.443,1.114,3.634a23.423,23.423,0,0,0,1.606,3.434,26.667,26.667,0,0,0,4.588,5.879,31.106,31.106,0,0,0,13.3,7.254V268.716c-9.587-2.486-19.483-5.7-27.4-11.857a31.893,31.893,0,0,1-9.25-11.126,34.861,34.861,0,0,1-3.229-14.977,35.716,35.716,0,0,1,3.13-15.164,36.962,36.962,0,0,1,8.574-11.777c7.7-7.093,17.92-11.049,28.175-12.5V179.748a10.448,10.448,0,1,1,20.9,0v11.5q2.05,0.258,4.084.625c10.07,1.824,19.919,5.987,27.282,13.256a39.912,39.912,0,0,1,8.353,12.018,38.7,38.7,0,0,1,1.476,3.827,23.28,23.28,0,0,1,.983,3.73,10.448,10.448,0,0,1-20.089,5.288c-0.438-1.141-.658-2.351-1.1-3.492a18.506,18.506,0,0,0-1.707-3.3,19.993,19.993,0,0,0-4.935-5.183c-4.189-3.1-9.269-4.708-14.344-5.611v39.612a132.445,132.445,0,0,1,17.849,5.3c8.736,3.449,17.013,8.737,21.781,17.075-0.74-1.3-1.46-2.565.026,0.043,1.457,2.562.761,1.341,0.03,0.057A37.406,37.406,0,0,1,228.814,296.807Zm-22.773,3.874c-0.061.109-.115,0.205-0.157,0.278C205.921,300.9,205.974,300.8,206.041,300.681Z" transform="translate(0 -0.281)"/>
</svg>
