<svg xmlns="http://www.w3.org/2000/svg" width="517" height="294.563" viewBox="0 0 517 294.563">
  <metadata><?xpacket begin="﻿" id="W5M0MpCehiHzreSzNTczkc9d"?>
<x:xmpmeta xmlns:x="adobe:ns:meta/" x:xmptk="Adobe XMP Core 5.6-c142 79.160924, 2017/07/13-01:06:39        ">
   <rdf:RDF xmlns:rdf="http://www.w3.org/1999/02/22-rdf-syntax-ns#">
      <rdf:Description rdf:about=""/>
   </rdf:RDF>
</x:xmpmeta>
                                                                                                    
                                                                                                    
                                                                                                    
                                                                                                    
                                                                                                    
                                                                                                    
                                                                                                    
                                                                                                    
                                                                                                    
                                                                                                    
                                                                                                    
                                                                                                    
                                                                                                    
                                                                                                    
                                                                                                    
                                                                                                    
                                                                                                    
                                                                                                    
                                                                                                    
                                                                                                    
                           
<?xpacket end="w"?></metadata>
<defs>
    <style>
      .cls-1 {
        fill-rule: evenodd;
      }
    </style>
  </defs>
  <path id="Forma_1" data-name="Forma 1" class="cls-1" d="M459.93,122.743q11.041-14.268,17.519-22.9,46.62-61.963,40.422-79.2l-1.619-2.694q-1.614-2.427-8.354-4.45t-17.245-.672l-77.613.548a22.113,22.113,0,0,0-5.391.125,14.975,14.975,0,0,0-3.5.809c-0.541.274-.988,0.494-1.345,0.672l-1.077.809a11.9,11.9,0,0,0-2.963,2.832,18.325,18.325,0,0,0-2.7,4.717,439.349,439.349,0,0,1-28.836,60.62q-9.971,16.7-18.323,28.96t-14.013,18.049a96.824,96.824,0,0,1-10.241,9.292c-3.059,2.345-5.391,3.325-7,2.969s-3.149-.714-4.583-1.083a17.792,17.792,0,0,1-6.063-6.6,29.592,29.592,0,0,1-3.1-10.506c-0.536-4.218-.857-7.858-0.94-10.917s-0.048-7.358.136-12.932,0.268-9.335.268-11.315q0-10.227.4-22.226,0.4-11.984.673-18.995t0.267-14.819a62,62,0,0,0-.946-12.261,42.9,42.9,0,0,0-2.827-8.619,14.465,14.465,0,0,0-5.528-6.461,31.161,31.161,0,0,0-9.027-3.641Q272.092-.391,250-0.655q-50.127-.518-64.408,6.472A36.381,36.381,0,0,0,175.351,13.9q-4.856,5.933-1.344,6.461,16.173,2.427,22.9,11.588l1.618,3.23q1.884,3.516,3.773,12.4a125.737,125.737,0,0,1,2.428,19.668,209.352,209.352,0,0,1,0,33.677q-1.349,14.019-2.559,21.814a43.7,43.7,0,0,1-3.636,12.66,52.79,52.79,0,0,1-3.237,5.937,4.706,4.706,0,0,1-1.345,1.344,20.238,20.238,0,0,1-7.277,1.345q-3.776,0-9.164-3.778a63.724,63.724,0,0,1-11.181-10.369,137.942,137.942,0,0,1-13.074-18.459q-7.273-11.843-15.09-28.013l-4.308-7.817q-4.044-7.532-11.05-21.951t-12.4-27.889a17.845,17.845,0,0,0-6.468-8.619l-1.344-.809a18.322,18.322,0,0,0-4.315-2.285,29.071,29.071,0,0,0-6.2-1.755l-73.841.535q-11.318,0-15.359,5.129L1.809,19.554A8.716,8.716,0,0,0,1,23.866a21.44,21.44,0,0,0,1.618,7.27q16.175,38,35.168,73.278,19,35.3,33.013,56.855t28.569,40.684q14.558,19.132,19.267,24.51,4.713,5.4,7.409,8.085l6.736,6.473a160.541,160.541,0,0,0,19,15.49,319.375,319.375,0,0,0,27.76,17.776,150.413,150.413,0,0,0,35.434,14.283,122.119,122.119,0,0,0,39.346,4.444h30.99q9.435-.8,14.282-5.926l1.077-1.344a18.273,18.273,0,0,0,2.022-4.979,27.552,27.552,0,0,0,.947-7.406,88.634,88.634,0,0,1,1.75-20.881q2.016-9.3,4.581-14.016a34.419,34.419,0,0,1,5.8-7.947,23.143,23.143,0,0,1,4.582-3.9,22.083,22.083,0,0,1,2.154-.946q6.462-2.149,15.228,4.176a89.668,89.668,0,0,1,16.441,15.628q7.676,9.3,18.459,20.881t18.863,17.24l5.391,3.241a66.194,66.194,0,0,0,14.014,5.926q8.62,2.685,15.091,1.344l68.99-1.082q10.239,0,15.9-3.367c3.772-2.231,6.016-4.718,6.736-7.406a20.9,20.9,0,0,0,.137-9.157,33.452,33.452,0,0,0-1.886-7.132,37.241,37.241,0,0,0-1.756-3.368q-13.478-24.243-51.472-59.542l-0.542-.536-0.267-.273-0.268-.261h-0.268q-17.255-16.437-21.827-22.1-8.354-10.761-3.772-21.814Q438.907,149.684,459.93,122.743Z" transform="translate(-1)"/>
</svg>
