<svg id="Capa_1" enable-background="new 0 0 511.74 511.74" height="36" viewBox="0 0 511.74 511.74" width="36" xmlns="http://www.w3.org/2000/svg"><g><g><g><g><path d="m110.262 186.199c-3.585-1.076-6.017-4.408-6.017-8.151v-22.746h-33.903v22.746c0 3.743-2.432 7.075-6.017 8.151-32.872 9.865-56.825 40.349-56.825 76.433v63.758c0 9.846 7.982 17.828 17.828 17.828s17.828-7.982 17.828-17.828l.077 147.67c0 12.108 9.86 21.923 22.022 21.923 12.163 0 22.022-9.815 22.022-21.923h.03c0 12.108 9.86 21.923 22.022 21.923s22.022-9.815 22.022-21.923v-147.679l.077.009c0 9.846 7.982 17.828 17.828 17.828 9.846 0 17.828-7.982 17.828-17.828v-63.758c.003-36.084-23.95-66.568-56.822-76.433z" fill="#57be92"/></g><g><path d="m167.088 262.628v63.76c0 4.921-1.995 9.385-5.22 12.61s-7.689 5.22-12.61 5.22c-3.286 0-6.362-.888-9.007-2.443 1.318-.764 2.531-1.705 3.603-2.777 3.225-3.225 5.22-7.689 5.22-12.61v-63.76c0-29.147-20.817-49.121-50.263-59.683-7.513-2.698-12.583-9.754-12.583-17.741v-29.903h18.014v22.75c0 3.743 2.434 7.074 6.019 8.146 32.873 9.868 56.827 40.351 56.827 76.431z" fill="#09a76d"/></g><g><circle cx="86.035" cy="116.378" fill="#fed2a4" r="55.221"/></g><g><path d="m141.258 116.377c0 30.495-24.725 55.22-55.22 55.22-10.283 0-19.917-2.809-28.158-7.71 4.058.953 8.292 1.459 12.645 1.459 30.503 0 55.228-24.716 55.228-55.22 0-20.212-10.865-37.893-27.07-47.509 24.405 5.711 42.575 27.618 42.575 53.76z" fill="#ffbd86"/></g></g><g><g><path d="m447.415 186.199c-3.585-1.076-6.017-4.408-6.017-8.151v-22.746h-33.903v22.746c0 3.743-2.432 7.075-6.017 8.151-32.872 9.864-56.825 40.348-56.825 76.432v63.758c0 9.846 7.982 17.828 17.828 17.828s17.828-7.982 17.828-17.828l.077 147.67c0 12.108 9.86 21.923 22.022 21.923 12.163 0 22.022-9.815 22.022-21.923h.03c0 12.108 9.86 21.923 22.022 21.923s22.022-9.815 22.022-21.923v-147.678l.077.009c0 9.846 7.982 17.828 17.828 17.828 9.846 0 17.828-7.982 17.828-17.828v-63.758c.003-36.084-23.95-66.568-56.822-76.433z" fill="#57be92"/></g><g><path d="m504.24 262.628v63.76c0 4.921-1.995 9.385-5.22 12.61s-7.689 5.22-12.61 5.22c-3.286 0-6.362-.888-9.007-2.443 1.318-.764 2.531-1.705 3.603-2.777 3.225-3.225 5.22-7.689 5.22-12.61v-63.76c0-29.147-20.817-49.121-50.263-59.683-7.513-2.698-12.583-9.754-12.583-17.741v-29.903h18.014v22.75c0 3.743 2.434 7.074 6.019 8.146 32.873 9.868 56.827 40.351 56.827 76.431z" fill="#09a76d"/></g><g><circle cx="423.188" cy="116.378" fill="#fed2a4" r="55.221"/></g><g><path d="m478.411 116.377c0 30.495-24.725 55.22-55.22 55.22-10.283 0-19.917-2.809-28.158-7.71 4.058.953 8.292 1.459 12.645 1.459 30.503 0 55.228-24.716 55.228-55.22 0-20.212-10.865-37.893-27.07-47.509 24.404 5.711 42.575 27.618 42.575 53.76z" fill="#ffbd86"/></g></g></g><g><g><path d="m406.549 109.707c-6.55-7.118-17.215-8.618-25.474-3.583l-50.315 35.871-22.071 13.137c-5.265 3.134-11.726 3.507-17.317 1.001-9.196-4.122-15.114-13.261-15.114-23.338v-.992h-39.001v.196c0 10.078-5.918 19.216-15.114 23.338l-1.776.796c-5.591 2.506-12.052 2.133-17.316-1.001l-22.071-13.137-50.315-35.871c-8.259-5.036-18.925-3.535-25.474 3.583-8.517 9.256-6.638 23.954 3.934 30.769l87.456 61.88c4.281 2.923 6.841 7.771 6.841 12.955v253.977c0 14.743 11.952 26.695 26.695 26.695.44 0 .877-.011 1.311-.032 13.796-.667 24.441-12.468 24.441-26.279v5.071c3.165 11.617 13.971 20.083 26.688 19.648 14.469-.495 25.759-12.774 25.759-27.252v-251.828c0-5.184 2.561-10.032 6.842-12.955l87.456-61.88c10.573-6.816 12.452-21.513 3.935-30.769z" fill="#60b7ff"/></g><g><path d="m402.617 140.473-87.463 61.881c-4.273 2.925-6.837 7.779-6.837 12.961v251.825c0 14.473-11.285 26.755-25.758 27.248-3.857.131-7.527-.548-10.869-1.906 9.926-4.043 16.829-14.024 16.829-25.342v-262.453c0-5.182 2.564-10.025 6.848-12.95l87.452-61.881c9.094-5.862 11.767-17.574 6.891-26.613 6.147-.581 12.424 1.665 16.84 6.464 8.514 9.259 6.64 23.951-3.933 30.766z" fill="#26a6fe"/></g><g><circle cx="256.72" cy="78.104" fill="#fed2a4" r="62.346"/></g><g><path d="m319.063 78.107c0 34.425-27.913 62.338-62.338 62.338-15.721 0-30.076-5.819-41.042-15.431 7.068 2.788 14.76 4.315 22.812 4.315 34.437 0 62.35-27.913 62.35-62.338 0-18.717-8.248-35.501-21.308-46.919 23.146 9.092 39.526 31.649 39.526 58.035z" fill="#ffbd86"/></g><g><path d="m494.139 210.062c-11.134-14.737-26.962-25.763-44.567-31.046-.396-.119-.673-.517-.673-.968v-4.483c21.796-9.838 37.011-31.762 37.011-57.188 0-34.584-28.137-62.721-62.721-62.721-32.926 0-59.985 25.508-62.508 57.796l-34.022 24.255-21.805 12.979c-3.162 1.882-7.055 2.107-10.413.602-3.658-1.64-6.586-4.413-8.445-7.794 23.927-11.094 40.571-35.329 40.571-63.392 0-38.514-31.333-69.847-69.846-69.847-38.514 0-69.847 31.333-69.847 69.847 0 27.94 16.497 52.089 40.256 63.249-3.827 6.331-13.081 11.598-20.243 7.335-.059-.035-21.805-12.979-21.805-12.979l-36.705-26.168c-3.419-31.379-30.068-55.884-62.342-55.884-34.584 0-62.721 28.137-62.721 62.721 0 26.393 16.395 49.015 39.528 58.258v3.413c0 .451-.277.849-.673.968-17.605 5.283-33.433 16.309-44.567 31.046-11.516 15.242-17.602 33.42-17.602 52.57v63.758c0 13.966 11.362 25.328 25.328 25.328 3.708 0 7.229-.808 10.406-2.246v31.314c0 4.142 3.358 7.5 7.5 7.5s7.5-3.358 7.5-7.5v-127.583c0-4.142-3.358-7.5-7.5-7.5s-7.5 3.358-7.5 7.5l-.078 73.188c0 5.695-4.633 10.328-10.328 10.328s-10.328-4.634-10.328-10.328v-63.758c0-15.86 5.038-30.911 14.57-43.527 9.227-12.213 22.335-21.348 36.911-25.721 6.53-1.96 11.125-8.02 11.34-14.839 2.691.354 5.428.555 8.214.555 3.655 0 7.231-.331 10.715-.936.051 6.974 4.704 13.222 11.357 15.219 14.576 4.374 27.684 13.508 36.911 25.721 9.532 12.615 14.57 27.667 14.57 43.527v63.758c0 5.695-4.633 10.328-10.328 10.328s-10.406-4.633-10.406-10.328c0-.348 0-72.066 0-72.066 0-4.142-3.358-7.5-7.5-7.5s-7.5 3.358-7.5 7.5v219.737c0 7.953-6.515 14.423-14.522 14.423-8.008 0-14.522-6.47-14.522-14.423v-134.322c0-4.142-3.357-7.5-7.499-7.5-4.142 0-7.5 3.357-7.5 7.499l-.03 134.324c0 7.953-6.515 14.423-14.522 14.423s-14.522-6.47-14.522-14.423v-58.142c0-4.142-3.358-7.5-7.5-7.5s-7.5 3.358-7.5 7.5v58.142c0 16.224 13.244 29.423 29.522 29.423 8.752 0 16.626-3.815 22.038-9.864 5.411 6.048 13.286 9.864 22.038 9.864 16.278 0 29.522-13.199 29.522-29.423v-124.589c3.177 1.438 6.698 2.246 10.406 2.246 13.966 0 25.328-11.362 25.328-25.328v-63.758c0-19.15-6.086-37.329-17.602-52.569-11.134-14.737-26.962-25.763-44.567-31.045-.396-.119-.673-.517-.673-.968v-4.49c5.942-2.69 11.396-6.276 16.186-10.59l64.318 45.509c.034.024.069.048.104.072 2.235 1.526 3.57 4.053 3.57 6.761v253.977c0 18.855 15.34 34.195 34.195 34.195.561 0 1.119-.014 1.673-.041 9.951-.481 18.691-5.378 24.438-12.783 6.578 7.294 16.175 11.584 26.585 11.227 18.198-.623 33.003-16.21 33.003-34.748v-196.721c0-4.142-3.358-7.5-7.5-7.5s-7.5 3.358-7.5 7.5v196.721c0 10.544-8.306 19.407-18.516 19.756-8.642.292-16.299-5.107-18.932-13.239v-155.923c0-4.142-3.358-7.5-7.5-7.5s-7.5 3.358-7.5 7.5v151.939c0 10.066-7.601 18.319-17.303 18.789-.315.015-.631.023-.949.023-10.584 0-19.195-8.611-19.195-19.195v-253.978c0-7.645-3.757-14.783-10.055-19.109l-87.411-61.849c-.088-.062-.178-.123-.269-.181-3.175-2.046-5.27-5.369-5.75-9.116-.479-3.748.713-7.491 3.271-10.271 4.06-4.413 10.687-5.396 15.846-2.38l50.07 35.697c.168.12.341.232.518.338 0 0 22.053 13.127 22.071 13.137 15.432 9.186 34.96.002 42.294-15.315 4.9 1.093 9.986 1.688 15.211 1.688 5.132 0 10.13-.572 14.949-1.627 3.264 7.265 9.099 13.276 16.635 16.654 7.811 3.502 16.865 2.978 24.22-1.4l22.071-13.137c.177-.105.35-.218.518-.338l50.07-35.697c5.159-3.014 11.787-2.031 15.846 2.379 2.558 2.78 3.75 6.523 3.271 10.271-.479 3.747-2.575 7.069-5.75 9.116-.091.059-.18.119-.269.181l-87.41 61.849c-6.297 4.327-10.055 11.465-10.055 19.109v20.107c0 4.142 3.358 7.5 7.5 7.5s7.5-3.358 7.5-7.5v-20.107c0-2.708 1.334-5.235 3.57-6.761.035-.024.069-.048.104-.072l62.913-44.515c5.197 4.461 11.134 8.078 17.59 10.664v3.421c0 .451-.277.849-.673.968-17.605 5.283-33.434 16.309-44.568 31.046-11.515 15.241-17.602 33.419-17.602 52.569v63.758c0 13.966 11.362 25.328 25.329 25.328 3.705 0 7.225-.782 10.406-2.177v124.521c0 16.224 13.244 29.423 29.522 29.423 8.752 0 16.626-3.814 22.037-9.864 5.411 6.049 13.286 9.864 22.038 9.864 16.279 0 29.522-13.199 29.522-29.423v-124.588c3.177 1.438 6.698 2.246 10.406 2.246 13.966 0 25.328-11.362 25.328-25.328v-63.758c0-19.151-6.086-37.329-17.601-52.57zm-394.467-105.434c-5.562 6.044-8.153 14.183-7.112 22.33 1.035 8.089 5.535 15.27 12.355 19.727l10.382 7.346c-8.086 6.303-18.239 10.069-29.262 10.069-26.313 0-47.721-21.408-47.721-47.722 0-26.313 21.408-47.721 47.721-47.721 19.581 0 36.428 11.861 43.775 28.77-10.399-3.866-22.408-1.199-30.138 7.201zm157.049 28.322c-30.243 0-54.847-24.604-54.847-54.847s24.604-54.847 54.847-54.847c30.242 0 54.846 24.604 54.846 54.847s-24.604 54.847-54.846 54.847zm138.422 22 11.682-8.266c6.821-4.457 11.321-11.637 12.355-19.726 1.042-8.147-1.55-16.286-7.111-22.331-8.508-9.247-22.201-11.547-33.223-5.829 7.013-17.636 24.237-30.142 44.343-30.142 26.313 0 47.721 21.408 47.721 47.721 0 26.314-21.408 47.722-47.721 47.722-10.477.001-20.168-3.402-28.046-9.149zm101.597 171.44c0 5.695-4.633 10.328-10.328 10.328s-10.328-4.633-10.328-10.328c0-.348-.078-72.066-.078-72.066 0-4.142-3.358-7.5-7.5-7.5s-7.5 3.358-7.5 7.5v219.736c0 7.953-6.515 14.423-14.522 14.423s-14.522-6.47-14.522-14.423v-134.322c0-4.142-3.357-7.5-7.499-7.5 0 0 0 0-.001 0-4.141 0-7.499 3.357-7.5 7.499l-.03 134.324c0 7.953-6.515 14.423-14.522 14.423s-14.522-6.47-14.522-14.423v-220.859c0-4.142-3.358-7.5-7.5-7.5s-7.5 3.358-7.5 7.5v75.052c-.749 4.85-5.044 8.464-10.406 8.464-5.695 0-10.329-4.633-10.329-10.328v-63.758c0-15.86 5.038-30.912 14.57-43.527 9.227-12.213 22.335-21.348 36.912-25.721 6.527-1.959 11.121-8.013 11.34-14.829 2.689.354 5.429.545 8.214.545 3.654 0 7.23-.332 10.715-.935.052 6.974 4.704 13.222 11.357 15.218 14.576 4.374 27.684 13.508 36.911 25.721 9.532 12.615 14.57 27.667 14.57 43.527v63.759z"/><path d="m273.499 99.828c-3.307-2.495-8.009-1.836-10.504 1.469-1.505 1.995-3.799 3.139-6.292 3.139-2.481 0-4.768-1.135-6.274-3.115-2.508-3.297-7.214-3.936-10.51-1.428s-3.936 7.213-1.428 10.51c4.367 5.741 11.005 9.033 18.212 9.033 7.242 0 13.9-3.318 18.266-9.104 2.494-3.307 1.836-8.009-1.47-10.504z"/></g></g></g></svg>
