<svg width="0" height="0" style="position:absolute"><symbol viewBox="0 0 15 30" id="arrow_copy_3" xmlns="http://www.w3.org/2000/svg"><defs><linearGradient id="aa" gradientUnits="userSpaceOnUse" x1="2.005" y1="12.051" x2="13.005" y2="17.924"><stop stop-color="#f64f6e" offset="0"/><stop stop-color="#ff795e" offset="1"/></linearGradient><clipPath id="ab"><path d="M13.263 28.05L2.005 14.988 13.263 1.924"/></clipPath></defs><path d="M13.263 28.05L2.005 14.988 13.263 1.924"/><path d="M13.263 28.05v0L2.005 14.988v0L13.263 1.924v0" fill="none" stroke-linecap="round" stroke-miterlimit="50" stroke-width="6" clip-path="url(#ab)"/></symbol><symbol viewBox="0 0 28 28" id="children" xmlns="http://www.w3.org/2000/svg"><path d="M23.828 19.04a2.114 2.114 0 00-1.483-1.59 16.673 16.673 0 01-4.53-2.12c.236-.26.459-.53.678-.78 1.291-1.52 2.224-2.61 4.515-3.18a5.372 5.372 0 002.86-1.63 5.287 5.287 0 00.123-7.12 5 5 0 00-3.7-1.62 5.356 5.356 0 00-3.808 1.6 5.456 5.456 0 00-1.478 2.74c-.56 2.3-1.648 3.24-3.154 4.54-.255.22-.514.45-.78.68a16.83 16.83 0 01-2.1-4.56 2.141 2.141 0 00-.537-.91 2.241 2.241 0 00-3.176.05 2.329 2.329 0 00-.648 2.07 18.353 18.353 0 002.451 6.32 4.35 4.35 0 00-.619 1.15 6.563 6.563 0 00-5.5 1.91 6.464 6.464 0 00-.156 9.09 6.368 6.368 0 009.038-.15A6.668 6.668 0 0013.719 20a4.276 4.276 0 001.143-.63 18.057 18.057 0 006.283 2.47 2.287 2.287 0 002.049-.65 2.31 2.31 0 00.634-2.15zm-4.3-15.39a3.771 3.771 0 012.709-1.13 3.533 3.533 0 012.629 1.15 3.756 3.756 0 01-.088 5.06 3.814 3.814 0 01-2.044 1.16.029.029 0 01-.026.01 9.29 9.29 0 00-5.347 3.69c-.242.28-.491.57-.754.86a16.968 16.968 0 01-2.661-2.67c.291-.27.579-.52.861-.76a9.425 9.425 0 003.662-5.38l.006-.03a3.885 3.885 0 011.058-1.96zm-8.747 20.82a4.86 4.86 0 01-6.912.12 4.942 4.942 0 01.119-6.95 5 5 0 014.2-1.46 4.056 4.056 0 004.048 4.07 5.078 5.078 0 01-1.45 4.22zm-.809-9.6a17.613 17.613 0 001.657 1.91 18.4 18.4 0 001.906 1.67 2.674 2.674 0 01-.783.25 2.6 2.6 0 01-2.3-.73 2.642 2.642 0 01-.729-2.31 2.791 2.791 0 01.254-.79zm11.5 5.48a16.784 16.784 0 01-6.225-2.55 17.2 17.2 0 01-4.627-4.66 16.861 16.861 0 01-2.538-6.27.747.747 0 01.214-.67.733.733 0 011.05-.02.681.681 0 01.174.3 18.3 18.3 0 002.8 5.69.109.109 0 00.011.01 18.418 18.418 0 003.87 3.9s.01.01.015.01a18.065 18.065 0 005.655 2.81.7.7 0 01.487.52.771.771 0 01-.208.72.742.742 0 01-.669.21z" fill-rule="evenodd"/><path d="M7.594 6.25h2v2h-2v-2zm1 2h2v2h-2v-2zm1 2h2v2h-2v-2zm1 2h2v2h-2v-2zm9 6h2v2h-2v-2zm1 0h2v2h-2v-2zm-3 0h2v2h-2v-2zm0-1h2v2h-2v-2zm-1 0h2v2h-2v-2zm0-1h2v2h-2v-2zm-1 0h2v2h-2v-2zm-1 0h2v2h-2v-2zm0-1h2v2h-2v-2zm-1 0h2v2h-2v-2zm0-1h2v2h-2v-2zm-1 0h2v2h-2v-2zm0-1h2v2h-2v-2zm-1 0h2v2h-2v-2zm0-1h2v2h-2v-2zm-1-1h2v2h-2v-2zm-1 0h2v2h-2v-2zm0-2h2v2h-2v-2zm-1 0h2v2h-2v-2zm0-2h2v2h-2v-2z" fill-rule="evenodd"/></symbol><symbol viewBox="0 0 29 31" id="consultation" xmlns="http://www.w3.org/2000/svg"><path d="M.5 21.5c0-16.09 6.268-21 14-21s14 5 14 21" fill="none"/><rect x="2" y="14" width="4" height="10" rx="2" ry="2"/><rect x="24" y="14" width="4" height="10" rx="2" ry="2"/><rect x="12" y="27" width="6" height="4" rx="2" ry="2"/><path d="M28.5 21.5v3c0 3.32-2.686 5-6 5h-5" fill="none"/></symbol><symbol viewBox="0 0 52 96" id="fb" xmlns="http://www.w3.org/2000/svg"><path d="M50.041.019L37.568 0C23.557 0 14.5 9.272 14.5 23.625v10.893H1.962A1.96 1.96 0 000 36.477V52.26a1.959 1.959 0 001.961 1.957H14.5v39.827A1.959 1.959 0 0016.463 96h16.361a1.959 1.959 0 001.961-1.958V54.218h14.662a1.959 1.959 0 001.961-1.957l.006-15.783a1.961 1.961 0 00-1.962-1.959H34.786v-9.235c0-4.438 1.06-6.692 6.851-6.692h8.4A1.959 1.959 0 0052 16.632V1.976A1.96 1.96 0 0050.041.019z" fill-rule="evenodd"/></symbol><symbol viewBox="0 0 26 25" id="gift" xmlns="http://www.w3.org/2000/svg"><path d="M13 9H6L4 7V4l3-3h3l2 3h2l2-3h3l3 3v3l-2 2h-7z" stroke-width="2" fill="none"/><path d="M11 6h4l-1 2h-2z" fill="none"/><path d="M0 9h26v6H0V9zm2 0h22v16H2V9zm9 0h4v12h-4V9z" fill-rule="evenodd"/></symbol><symbol viewBox="0 0 39 24" id="ironing" xmlns="http://www.w3.org/2000/svg"><path d="M1 20s1.106-9.71 14-15a58.547 58.547 0 0112-1s.694 10.28 4 12a34.844 34.844 0 01-9 4H1z" fill="none" stroke-width="2"/><path d="M26 4s3.043-3 5-3 3.773 2.29 4 3 1 4 1 4l-1 5v5s1.156 3.16 3 3" fill="none" stroke-width="2"/><path d="M1 19l-1 3h23s5.795-2.67 8-3-2-3-2-3l-6 3H1z" fill-rule="evenodd"/></symbol><symbol viewBox="0 0 28 36" id="marker" xmlns="http://www.w3.org/2000/svg"><path d="M14 1a13 13 0 0113 13c0 7.18-13 21-13 21S1 21.18 1 14A13 13 0 0114 1z" stroke-width="2" fill="none"/><circle cx="14" cy="14" r="4" stroke-linecap="round" stroke-width="2"/></symbol><symbol viewBox="0 0 29 30" id="money" xmlns="http://www.w3.org/2000/svg"><circle cx="11" cy="19" r="10" stroke-linecap="round" stroke-width="2" fill="none"/><path d="M8.05 8.95a10 9.55 0 1112.98 10.8" stroke-linecap="round" stroke-width="2" fill="none"/><circle cx="11" cy="19" r="6" stroke-linecap="round" stroke-width="2"/></symbol><symbol viewBox="0 0 26 38" id="phone" xmlns="http://www.w3.org/2000/svg"><rect x="1" y="1" width="24" height="36" rx="3" ry="3" fill="none" stroke-width="2"/><circle cx="13" cy="31" r="2" fill="none" stroke-width="2"/><rect x="8" y="5" width="10" height="1" rx=".5" ry=".5" fill="none" stroke-width="2"/></symbol><symbol viewBox="0 0 352 425" id="price" xmlns="http://www.w3.org/2000/svg"><path d="M204.942 282.519a20.181 20.181 0 00-5.667-4.124 68.249 68.249 0 00-14.359-5.08v38.045c7.96-.9 17.1-3.793 21.277-11.232a17.4 17.4 0 001.579-11.876 11.936 11.936 0 00-2.83-5.733zm1.21 17.683l.042-.074-.042.076zm-58.569-78.5a14.278 14.278 0 00-2.464 6.69 16.05 16.05 0 00.815 7.392 11.842 11.842 0 004.6 5.065 35.939 35.939 0 006.832 3.531c2 .8 4.238 1.573 6.656 2.315V212.27c-6.111 1.305-12.785 4.091-16.439 9.433zm58.768 78.146c-.05.089-.1.183-.157.281.063-.11.111-.198.157-.28zm.2-.356c.013-.024.015-.026 0 0zM198.3 92.543c32.319-27.178 53.91-88.408 40.622-91.086-17.656-3.56-56 12.049-74.529 14.8-26.284 3.177-54.911-28.538-70.98-10.86-13.065 14.373 9.367 66.642 44.462 89.413C33.171 146.334-114 404.983 142.747 423.75 498 449.719 320.112 142.751 198.3 92.543zm30.511 203.983a37.406 37.406 0 01-14.406 25.393c-8.424 6.537-18.99 9.577-29.489 10.429v11.141a10.45 10.45 0 11-20.9 0v-12.177a67.605 67.605 0 01-5.354-1.236 51.284 51.284 0 01-25.562-15.744 46.147 46.147 0 01-7.878-13.036q-.732-1.861-1.3-3.785a19.432 19.432 0 01-.823-3.542 10.447 10.447 0 0120.313-4.342c.4 1.206.667 2.443 1.114 3.634a23.423 23.423 0 001.606 3.434 26.667 26.667 0 004.588 5.879 31.106 31.106 0 0013.3 7.254v-41.393c-9.587-2.486-19.483-5.7-27.4-11.857a31.893 31.893 0 01-9.25-11.126 34.861 34.861 0 01-3.229-14.977 35.716 35.716 0 013.13-15.164 36.962 36.962 0 018.574-11.777c7.7-7.093 17.92-11.049 28.175-12.5v-11.567a10.45 10.45 0 1120.9 0v11.5q2.05.258 4.084.625c10.07 1.824 19.919 5.987 27.282 13.256a39.912 39.912 0 018.353 12.018 38.7 38.7 0 011.476 3.827 23.28 23.28 0 01.983 3.73 10.448 10.448 0 01-20.089 5.288c-.438-1.141-.658-2.351-1.1-3.492a18.506 18.506 0 00-1.707-3.3 19.993 19.993 0 00-4.935-5.183c-4.189-3.1-9.269-4.708-14.344-5.611v39.612a132.445 132.445 0 0117.849 5.3c8.736 3.449 17.013 8.737 21.781 17.075-.74-1.3-1.46-2.565.026.043 1.457 2.562.761 1.341.03.057a37.406 37.406 0 014.205 22.314zm-22.773 3.874l-.157.278c.04-.059.093-.159.16-.278z" fill-rule="evenodd"/></symbol><symbol viewBox="0 0 512 512" id="search" xmlns="http://www.w3.org/2000/svg"><path d="M495 466.2L377.2 348.4c29.2-35.6 46.8-81.2 46.8-130.9C424 103.5 331.5 11 217.5 11 103.4 11 11 103.5 11 217.5S103.4 424 217.5 424c49.7 0 95.2-17.5 130.8-46.7L466.1 495c8 8 20.9 8 28.9 0 8-7.9 8-20.9 0-28.8zm-277.5-83.3C126.2 382.9 52 308.7 52 217.5S126.2 52 217.5 52C308.7 52 383 126.3 383 217.5s-74.3 165.4-165.5 165.4z"/></symbol><symbol viewBox="0 0 29 30" id="send" xmlns="http://www.w3.org/2000/svg"><path d="M1 17L28 1l-4 25z" stroke-width="2" fill="none"/><path d="M9 29v-9l13-10-11 19H9z" stroke-width="2" fill-rule="evenodd"/></symbol><symbol viewBox="0 0 25 31" id="settings" xmlns="http://www.w3.org/2000/svg"><path d="M2.5 21.5v-12l-2-2v-4l2-3h2v3h3v-3h2l2 3v4l-2 2v12l2 2v4l-2 3h-2v-4h-3v4h-2l-2-3v-4z" fill-rule="evenodd"/><path d="M17.5 30.5h5l1-2v-13l-1-2v-7l2-2-4-4h-1l-4 4 2 2v7l-1 2v13z" fill="none"/><path fill="none" d="M19 14h3v1h-3z"/></symbol><symbol viewBox="0 0 26 30" id="time" xmlns="http://www.w3.org/2000/svg"><path d="M0 0h26v2H0z"/><path d="M0 28h26v2H0z"/><path d="M22 1H4a16.668 16.668 0 006 13.95C2.78 21.69 4 29 4 29h18" fill="none" stroke-linecap="round" stroke-width="2"/><path d="M4 1h17.944a16.7 16.7 0 01-5.981 13.95c7.2 6.74 5.981 14.05 5.981 14.05H4" fill="none" stroke-linecap="round" stroke-width="2"/><path d="M8 5a13 13 0 0110 0l-1 5-3.974 5L9 10zM13 17c-3.881.03-6 10-6 10h12s-2.117-10.03-6-10z" fill-rule="evenodd"/></symbol><symbol viewBox="0 0 517 295" id="vk" xmlns="http://www.w3.org/2000/svg"><path d="M458.93 122.743q11.041-14.268 17.519-22.9 46.62-61.963 40.422-79.2l-1.619-2.694q-1.614-2.427-8.354-4.45t-17.245-.672l-77.613.548a22.113 22.113 0 00-5.391.125 14.975 14.975 0 00-3.5.809c-.541.274-.988.494-1.345.672l-1.077.809a11.9 11.9 0 00-2.963 2.832 18.325 18.325 0 00-2.7 4.717 439.349 439.349 0 01-28.836 60.62q-9.971 16.7-18.323 28.96t-14.013 18.049a96.824 96.824 0 01-10.241 9.292c-3.059 2.345-5.391 3.325-7 2.969s-3.149-.714-4.583-1.083a17.792 17.792 0 01-6.063-6.6 29.592 29.592 0 01-3.1-10.506c-.536-4.218-.857-7.858-.94-10.917s-.048-7.358.136-12.932.268-9.335.268-11.315q0-10.227.4-22.226.4-11.984.673-18.995t.267-14.819a62 62 0 00-.946-12.261 42.9 42.9 0 00-2.827-8.619 14.465 14.465 0 00-5.528-6.461 31.161 31.161 0 00-9.027-3.641Q271.092-.391 249-.655q-50.127-.518-64.408 6.472a36.381 36.381 0 00-10.241 8.083q-4.856 5.933-1.344 6.461 16.173 2.427 22.9 11.588l1.618 3.23q1.884 3.516 3.773 12.4a125.737 125.737 0 012.428 19.668 209.352 209.352 0 010 33.677q-1.349 14.019-2.559 21.814a43.7 43.7 0 01-3.636 12.66 52.79 52.79 0 01-3.237 5.937 4.706 4.706 0 01-1.345 1.344 20.238 20.238 0 01-7.277 1.345q-3.776 0-9.164-3.778a63.724 63.724 0 01-11.181-10.369 137.942 137.942 0 01-13.074-18.459q-7.273-11.843-15.09-28.013l-4.308-7.817q-4.044-7.532-11.05-21.951t-12.4-27.889a17.845 17.845 0 00-6.468-8.619l-1.344-.809a18.322 18.322 0 00-4.315-2.285 29.071 29.071 0 00-6.2-1.755l-73.841.535q-11.318 0-15.359 5.129l-1.069 1.61A8.716 8.716 0 000 23.866a21.44 21.44 0 001.618 7.27q16.175 38 35.168 73.278 19 35.3 33.013 56.855t28.569 40.684q14.558 19.132 19.267 24.51 4.713 5.4 7.409 8.085l6.736 6.473a160.541 160.541 0 0019 15.49 319.375 319.375 0 0027.76 17.776 150.413 150.413 0 0035.434 14.283 122.119 122.119 0 0039.346 4.444h30.99q9.435-.8 14.282-5.926l1.077-1.344a18.273 18.273 0 002.022-4.979 27.552 27.552 0 00.947-7.406 88.634 88.634 0 011.75-20.881q2.016-9.3 4.581-14.016a34.419 34.419 0 015.8-7.947 23.143 23.143 0 014.582-3.9 22.083 22.083 0 012.154-.946q6.462-2.149 15.228 4.176a89.668 89.668 0 0116.441 15.628q7.676 9.3 18.459 20.881t18.863 17.24l5.391 3.241a66.194 66.194 0 0014.014 5.926q8.62 2.685 15.091 1.344l68.99-1.082q10.239 0 15.9-3.367c3.772-2.231 6.016-4.718 6.736-7.406a20.9 20.9 0 00.137-9.157 33.452 33.452 0 00-1.886-7.132 37.241 37.241 0 00-1.756-3.368q-13.478-24.243-51.472-59.542l-.542-.536-.267-.273-.268-.261h-.268q-17.255-16.437-21.827-22.1-8.354-10.761-3.772-21.814 3.21-8.383 24.233-35.324z" fill-rule="evenodd"/></symbol><symbol viewBox="0 0 26 30" id="wash" xmlns="http://www.w3.org/2000/svg"><path stroke-linecap="round" stroke-width="2" fill="none" d="M1 1h24v28H1z"/><circle cx="7.5" cy="6.5" r="1.5" stroke-linecap="round" stroke-width="2" fill="none"/><circle cx="12.5" cy="6.5" r="1.5" stroke-linecap="round" stroke-width="2" fill="none"/><circle cx="13" cy="18" r="7" stroke-linecap="round" stroke-width="2" fill="none"/><path d="M17.937 13.05a7 7 0 01-9.892 9.9" fill-rule="evenodd" stroke-linecap="round" stroke-width="2"/></symbol></svg>