<svg xmlns="http://www.w3.org/2000/svg" width="136" height="48" viewBox="0 0 136 48"><path d="M2.81 39a4.86 4.86 0 00-.19 2.24 1.27 1.27 0 001.28 1A2 2 0 005.15 42a4 4 0 001.09-.75 17.24 17.24 0 002.55-3.48q1.21-2.19 2.34-4.37c.2-.49.43-.66.67-.52s.24.47 0 1c-.34.72-.78 1.63-1.3 2.7a24.11 24.11 0 01-1.84 3.15 13.72 13.72 0 01-2.32 2.6 4.07 4.07 0 01-2.7 1.06 3.33 3.33 0 01-2.24-.67A3.32 3.32 0 01.36 41a5.68 5.68 0 01-.1-2.19 9 9 0 01.57-2.21l3.33-8.47a1.48 1.48 0 000-1.36 8.66 8.66 0 00-.52-.77l2.86-.05c.83 0 1.29.15 1.38.44a2.27 2.27 0 01-.29 1.38l-4.16 9.68a2.84 2.84 0 01-.26.63L3 38.6zm7.33-17.31a2.5 2.5 0 01-.89 1.5 2.39 2.39 0 01-1.61.63 1.71 1.71 0 01-1.4-.63 1.87 1.87 0 01-.42-1.5 2.52 2.52 0 01.89-1.51 2.39 2.39 0 011.61-.63 1.81 1.81 0 011.43.63 1.74 1.74 0 01.39 1.47z" fill="#f95c69"/><g style="isolation:isolate" fill="#fff"><path d="M55 11a9.9 9.9 0 01-3.48 1.66 1.14 1.14 0 01-.79 0 .38.38 0 01-.25-.34q0-.21.33-.42a3 3 0 011-.31A3.43 3.43 0 0055 8a4.93 4.93 0 00-1.09-2.7 6.65 6.65 0 00-3-2.14 13.34 13.34 0 00-5.07-.72A22.58 22.58 0 0038.59 4a12.89 12.89 0 00-4.06 2.26 7.26 7.26 0 00-2.31 3.14 4.83 4.83 0 00.15 3.54 7.93 7.93 0 003.41 3.43 26.4 26.4 0 002.73 1.43l3.17 1.46c1.09.5 2.19 1 3.28 1.56s2.12 1.1 3.09 1.69A12 12 0 0152 26a8.27 8.27 0 011.43 3.85 8.42 8.42 0 01-.62 3.95 15.86 15.86 0 01-2.26 3.82 24.68 24.68 0 01-3.44 3.51 30.88 30.88 0 01-4.16 3 26.84 26.84 0 01-6.6 2.78 34.61 34.61 0 01-7.44 1.22 32.19 32.19 0 01-7.43-.44 21.08 21.08 0 01-6.53-2.24 14.27 14.27 0 01-4.76-4.16A11.55 11.55 0 018.06 35a11.06 11.06 0 01.59-4 20.32 20.32 0 011.89-4.16 19.08 19.08 0 012.88-3.69 12.33 12.33 0 013.58-2.6 3.58 3.58 0 01.62-.18 1.16 1.16 0 01.55 0c.12 0 .14.13.07.28a2.32 2.32 0 01-.72.7 18.56 18.56 0 00-2 1.8 13.45 13.45 0 00-1.64 2.1 17.57 17.57 0 00-2.13 4.71A19.07 19.07 0 0011 35a9.86 9.86 0 001.37 5.51 11.55 11.55 0 003.77 3.72 16.61 16.61 0 005.39 2.05 26.44 26.44 0 006.26.52 31.67 31.67 0 006.4-.86A24.92 24.92 0 0040 43.8a20.64 20.64 0 005.54-4.14 14.35 14.35 0 003.17-5A8.92 8.92 0 0049 29.6a8 8 0 00-2.91-4.42 14.36 14.36 0 00-3-1.84c-1.21-.58-2.48-1.14-3.8-1.69S36.7 20.53 35.42 20A21.64 21.64 0 0132 18.11a8.19 8.19 0 01-3.62-4.21 6.54 6.54 0 01.16-4.47 10.11 10.11 0 013-4 16.58 16.58 0 015-2.86 25.38 25.38 0 014.34-1.07 33.43 33.43 0 014.62-.45 26.5 26.5 0 014.35.26 12.3 12.3 0 013.45 1 6.49 6.49 0 012.29 1.77 5.75 5.75 0 011.17 2.29 4.34 4.34 0 01-.13 2.44A5 5 0 0155 11zm20.92 22.92c-.41.9-.91 1.91-1.48 3a23.85 23.85 0 01-1.92 3.17 12.55 12.55 0 01-2.32 2.51 4.25 4.25 0 01-2.7 1 4.31 4.31 0 01-1.41-.26 2.5 2.5 0 01-1.22-1 3.8 3.8 0 01-.6-1.87 8 8 0 01.47-3 12.72 12.72 0 011-2.37c.49-.88 1.09-1.92 1.82-3.09a3.28 3.28 0 00.52-1.36c0-.38-.09-.6-.39-.67a2.27 2.27 0 00-1.38.41 14.27 14.27 0 00-2.44 1.93A26.58 26.58 0 0060.71 36a45.68 45.68 0 00-4.08 6.7 1.06 1.06 0 01-.68.68 5.46 5.46 0 01-1.24.1 9.6 9.6 0 01-1 .06 1.45 1.45 0 00-.8.26l3.3-6.82q1.74-3.59 3.54-7.25c1.19-2.44 2.42-4.9 3.69-7.36s2.52-4.85 3.77-7.17a13 13 0 011.66-2.53 2.34 2.34 0 012-.75 8.54 8.54 0 011.07.18 2.59 2.59 0 001.11 0 13.42 13.42 0 00-1.48 2c-.6.94-1.28 2-2 3.31s-1.51 2.59-2.36 4.16-1.71 3.13-2.57 4.76-1.72 3.25-2.55 4.88-1.59 3.18-2.29 4.63c.7-.9 1.4-1.74 2.11-2.52A23.52 23.52 0 0164 31.27a25 25 0 012.32-1.8 27.39 27.39 0 012.78-1.71 16.18 16.18 0 012.63-1.17 3.18 3.18 0 011.89-.21c-1 1.87-2 3.66-2.86 5.35-.38.73-.75 1.48-1.11 2.24s-.71 1.5-1 2.21-.58 1.38-.8 2a8.75 8.75 0 00-.45 1.61 3.88 3.88 0 000 2.16 1 1 0 00.8.6 2.71 2.71 0 002-1 16.59 16.59 0 002.06-2.63c.66-1 1.25-2.05 1.79-3.09s1-1.84 1.22-2.39.5-.66.76-.52.17.44-.11 1z"/><path d="M88 23.62a.27.27 0 01.28.18.76.76 0 01.06.39 1.28 1.28 0 01-.13.39.34.34 0 01-.32.19h-3a40.81 40.81 0 01-3 4.36 33.69 33.69 0 01-4 4.22 8 8 0 00-.39 1.4q-.18.89-.39 1.77t-.42 2.13a3.88 3.88 0 000 2.05 2 2 0 00.78 1.07 1.73 1.73 0 001.25.18 2.94 2.94 0 001.35-.6 12.29 12.29 0 003.15-3.53q1.32-2.19 2.36-4.32c.21-.48.45-.68.71-.6s.25.39 0 .91c-.59 1.22-1.09 2.22-1.51 3s-.8 1.5-1.17 2.11a12.11 12.11 0 01-1.11 1.58c-.39.45-.82.92-1.31 1.41a4.89 4.89 0 01-2.41 1.35 4.27 4.27 0 01-2.52-.13 3.61 3.61 0 01-1.85-1.72 5.35 5.35 0 01-.39-3.4 21 21 0 01.6-3c.29-1.13.62-2.28 1-3.46s.77-2.36 1.2-3.54.86-2.27 1.28-3.27h-2.7a.33.33 0 01-.31-.19.59.59 0 01-.08-.39.92.92 0 01.16-.39.39.39 0 01.34-.18h3.12c.58-1.32 1.2-2.6 1.84-3.85s1.29-2.42 2-3.53a9.77 9.77 0 012.89-3.36 3.07 3.07 0 012.57-.67c.69.22 1.09.92 1.2 2.08a10.44 10.44 0 01-1.3 4.86q-1.09 2.3-2.24 4.47zm-6.76 1.15c-.56 1.28-1.07 2.53-1.54 3.74s-.89 2.27-1.27 3.17a29.63 29.63 0 002.81-3.27c.86-1.18 1.68-2.4 2.44-3.64zM87 18.32a11.54 11.54 0 00.62-1.93 5.05 5.05 0 00.18-1.74c0-.43-.25-.6-.59-.49s-.92.73-1.72 1.87a20.85 20.85 0 00-1.82 3.35l-1.87 4.24h2.6a55.25 55.25 0 002.6-5.3z"/><path d="M103.9 33.66c-.21.48-.55 1.25-1 2.29a21.2 21.2 0 01-1.74 3.12 12.94 12.94 0 01-2.42 2.73 4.48 4.48 0 01-3 1.18 4.76 4.76 0 01-2-.37 4.13 4.13 0 01-1.32-.94A10.86 10.86 0 0190.17 43a5.17 5.17 0 01-2.29.42 3.5 3.5 0 01-2.36-.85 4 4 0 01-1.15-2.14 8.17 8.17 0 010-3 14.27 14.27 0 011-3.41 19 19 0 011.93-3.38 17 17 0 012.47-2.81 12.13 12.13 0 012.73-1.9 5.74 5.74 0 012.75-.65 3.26 3.26 0 012.34.84 4 4 0 011.17 2.18 8.55 8.55 0 010 3 14 14 0 01-1 3.41 17.9 17.9 0 01-1.72 3 17.32 17.32 0 01-2.65 3.09 2.51 2.51 0 002.45 1.3 3.39 3.39 0 002.36-1 12.89 12.89 0 002.06-2.49 27.25 27.25 0 001.66-3c.49-1 .88-1.82 1.2-2.44a.45.45 0 01.62-.26c.26.09.33.37.16.75zm-7.6-6.76a2.75 2.75 0 00-1.81.23 6.93 6.93 0 00-2 1.41 16.72 16.72 0 00-1.93 2.28 19.78 19.78 0 00-1.66 2.89 21.65 21.65 0 00-1.22 3 12.5 12.5 0 00-.55 2.58 4.44 4.44 0 00.16 1.89 1.4 1.4 0 001 1A2.59 2.59 0 0090 42a6.72 6.72 0 001.87-1.14 5 5 0 01-.62-1.3 4.25 4.25 0 01-.25-1.22 3.55 3.55 0 01.44-1.56 1.46 1.46 0 011.38-.68 1.49 1.49 0 011.12.47 1.56 1.56 0 01.44 1.09 2.48 2.48 0 010 .29c0 .09 0 .18-.08.28a22.25 22.25 0 001.61-2.8 18.69 18.69 0 001.19-3.07 11.13 11.13 0 00.47-2.6 4.35 4.35 0 00-.26-1.9 1.54 1.54 0 00-1.01-.96z"/><path d="M117.26 33.87q-.57 1.18-1.35 2.7a28.16 28.16 0 01-1.72 2.91 13.27 13.27 0 01-2.08 2.52 5.5 5.5 0 01-2.39 1.38 2.91 2.91 0 01-1.48-.08 2.55 2.55 0 01-1.38-1 4 4 0 01-.67-2.11 8 8 0 01.67-3.35c.21-.52.46-1.08.76-1.67s.6-1.16.93-1.71l.91-1.56a11.82 11.82 0 00.62-1.2 1.22 1.22 0 00-.62-1.84 8.67 8.67 0 00-3.38-.6l-.62 1.66c-.32.83-.7 1.78-1.15 2.84s-1 2.13-1.51 3.22A32 32 0 01101 39a15.3 15.3 0 01-1.87 2.36c-.21.18-.38.17-.5 0a.56.56 0 01.08-.65 32.93 32.93 0 002.86-4.45 49.17 49.17 0 002.31-4.94 48.06 48.06 0 001.72-5c.47-1.66.84-3.22 1.12-4.68a1.9 1.9 0 01.83-1.43 1.24 1.24 0 011.22 0 2.35 2.35 0 011 1.17 3.54 3.54 0 01.13 2.16 4.34 4.34 0 01-1.22 2.05 12.57 12.57 0 01-1.61 1.41 32.62 32.62 0 003.35.05c1.27 0 2.54-.12 3.83-.26a1.14 1.14 0 01.07.76 6.58 6.58 0 01-.26 1c-.12.36-.27.74-.44 1.14s-.33.75-.47 1.07-.37.74-.7 1.4l-1.09 2.21c-.4.81-.78 1.67-1.15 2.57a17.46 17.46 0 00-.8 2.47 4.74 4.74 0 00-.13 1.85.88.88 0 00.91.78 2.61 2.61 0 001.74-1 17.73 17.73 0 001.87-2.44 33.3 33.3 0 001.67-2.89l1.17-2.31c.24-.45.47-.61.7-.47s.2.42-.08.94z"/><path d="M135.51 33.81c-.38.8-.86 1.74-1.43 2.81a29.17 29.17 0 01-1.9 3.12 14.63 14.63 0 01-2.18 2.58 4 4 0 01-2.31 1.17 3.07 3.07 0 01-1.35-.24 2.45 2.45 0 01-1.2-1 4.42 4.42 0 01-.54-2.08 10.33 10.33 0 01.49-3.35c-.42.69-1 1.5-1.61 2.42a17.78 17.78 0 01-2.13 2.47 6 6 0 01-2.78 1.71 2.63 2.63 0 01-2.16-.39 3.66 3.66 0 01-1.28-2.05 8.27 8.27 0 01-.13-3.3 15.41 15.41 0 011.28-4.16 19.46 19.46 0 013-4.61 10.75 10.75 0 012.72-2.43 12 12 0 013.33-1.4 7.56 7.56 0 013.27-.11 4.79 4.79 0 012.68 1.51 1 1 0 01.34 1.09.76.76 0 01-.91.42 2.3 2.3 0 00-1.71-1.77 3.78 3.78 0 00-2.73.47 15 15 0 00-3.64 3 27.79 27.79 0 00-3.28 4.4l-.47.83c-.2.38-.42.82-.65 1.32s-.43 1-.62 1.56a8.09 8.09 0 00-.39 1.54 3 3 0 00.18 2 1.23 1.23 0 001.1.63 3.15 3.15 0 001.63-.6 8.43 8.43 0 001.87-1.68 29.55 29.55 0 002.47-3.51c.75-1.23 1.47-2.49 2.16-3.77a17.13 17.13 0 011.59-2.55 2.11 2.11 0 012-.78 10.68 10.68 0 011.06.18 2.64 2.64 0 001.12 0 10.48 10.48 0 00-1.12 1.53c-.46.75-1 1.6-1.45 2.55s-1 1.93-1.38 2.94a15.8 15.8 0 00-.88 2.7c-.42 2.08-.25 3.12.52 3.12a2.47 2.47 0 001.82-1 19.25 19.25 0 001.95-2.5q1-1.45 1.74-2.94t1.2-2.31c.24-.45.48-.63.72-.52s.23.46-.01.98z"/></g></svg>