<svg xmlns="http://www.w3.org/2000/svg" width="2260" height="2047" viewBox="0 0 2260 2047"><g opacity=".2" fill="none" stroke-linecap="round" stroke-width="2"><circle cx="1082" cy="1894" r="10" stroke="#f7546c"/><path d="M696 1859l7-7 8 5-2 9-8 1z" stroke="#fe7360"/><path d="M1014 1562l8-8 10 5-2 11-10 2z" stroke="#f7546c"/><path d="M1271 1668l7-7 8 4-2 10-8 1z" stroke="#f9596a"/><path d="M608 1613l7-7 8 5-2 9-8 1z" stroke="#fe755f"/></g><g opacity=".2" fill="none" stroke-linecap="round" stroke-width="2"><circle cx="262" cy="110" r="10" stroke="#f64f6e"/><circle cx="1544" cy="466" r="10" stroke="#f64f6e"/><path d="M624 585l7-7 8 5-2 9-8 1zM297 483l7-7 8 5-2 9-8 1z" stroke="#fb6864"/><path d="M1121 9l8-8 10 5-2 11-10 2z" stroke="#f64f6e"/><path d="M1355 165l7-7 8 4-2 10-8 1zm286-31l7-7 8 4-2 10-8 1z" stroke="#fd7460"/><path d="M621 70l7-7 8 5-2 9-8 1z" stroke="#ff795e"/></g><g opacity=".3" fill="none" stroke-linecap="round" stroke-width="2"><circle cx="1759" cy="1547" r="400" stroke="#ff795e" opacity=".2"/><circle cx="1760" cy="1546" r="500" stroke="#f85a6a" opacity=".2"/><circle cx="1759" cy="1546" r="300" stroke="#ff795e" opacity=".2"/><circle cx="500" cy="977" r="400" stroke="#ff795e" opacity=".2"/><circle cx="501" cy="976" r="500" stroke="#f85a6a" opacity=".2"/><circle cx="500" cy="976" r="300" stroke="#ff795e" opacity=".2"/></g></svg>