<svg xmlns="http://www.w3.org/2000/svg" width="1920" height="1748" viewBox="0 0 1920 1748"><g opacity=".2" fill="none" stroke-linecap="round" stroke-width="2"><circle cx="1478" cy="809" r="10" stroke="#010101"/><circle cx="992" cy="1445" r="10" stroke="#010101"/><path d="M182 752l7-7 8 5-2 9-8 1zm1496-155l7-7 8 5-2 9-8 1zm-165 899l7-7 8 5-2 9-8 1z" stroke="#010101"/><path d="M1489 1493l28-28 32 20-8 36-32 4z" stroke="#010101" opacity=".2"/><path d="M518 1512l7-7 8 5-2 9-8 1z" stroke="#010101"/><circle cx="440" cy="637" r="10" stroke="#010101"/><circle cx="440" cy="637" r="30" stroke="#010101" opacity=".2"/><path d="M404 1144l8-8 10 6-2 10-10 2zm532-108l8-8 10 6-2 10-10 2z" stroke="#000"/><path d="M1656 1102l7-7 8 5-2 9-8 1z" stroke="#010101"/><g opacity=".8"><path d="M-403 1746c0-220.91 179.086-400 400-400s400 179.09 400 400" opacity=".3" stroke="#ff795e"/><path d="M-502 1745c0-276.14 223.858-500 500-500s500 223.86 500 500" stroke="#f85a6a" opacity=".3"/><path d="M-303 1745c0-165.69 134.315-300 300-300s300 134.31 300 300" opacity=".3" stroke="#ff795e"/></g><g opacity=".8"><circle cx="958" cy="1237" r="400" stroke="#ff795e" opacity=".2"/><circle cx="959" cy="1236" r="500" stroke="#f85a6a" opacity=".2"/><circle cx="958" cy="1236" r="300" stroke="#ff795e" opacity=".2"/></g><g opacity=".8"><circle cx="1918" cy="502" r="400" opacity=".4" stroke="#ff795e"/><circle cx="1919" cy="501" r="500" opacity=".4" stroke="#f85a6a"/><circle cx="1918" cy="501" r="300" opacity=".4" stroke="#ff795e"/></g></g></svg>